<svg xmlns="http://www.w3.org/2000/svg" xmlns:xlink="http://www.w3.org/1999/xlink" viewBox="-26.4 18.1 333.9 269.7"><g>	<defs>		<path id="ic1" d="M205.5,193.1c0,0,20.2,35.1,29,50.5c19.1,33.5,39.2,28.7,55.4,23.8c6.6-2,12.6-4,17.6-3.4   c-27.3-51.4-35.4-68.7-46-84.5c-6.1-1.6-11.3-2.5-16.3-2.5C233.6,176.9,223.1,181.7,205.5,193.1"></path>	</defs>	<clipPath id="icclip1">		<use xlink:href="#ic1" style="overflow:visible;"></use>	</clipPath>			<linearGradient id="icgrad1" gradientUnits="userSpaceOnUse" x1="2068.5112" y1="3195.166" x2="2069.5112" y2="3195.166" gradientTransform="matrix(102.0128 0 0 -102.0128 -210809.0156 326174.75)">		<stop offset="0" style="stop-color:#0B77BD"></stop>		<stop offset="0.47" style="stop-color:#4ABAB7"></stop>		<stop offset="1" style="stop-color:#C1D226"></stop>	</linearGradient>			<rect x="205.5" y="176.9" style="clip-path:url(#icclip1);fill:url(#icgrad1);" width="102" height="100.2"></rect></g><g>	<defs>		<path id="ic2" d="M102.5,59.6l-60.8,99.8c-4.6,34.2,15.7,49.8,52.2,38   c16.4-33.9,36.4-84.4,56.7-116.3c10.9,20.5,22.8,50,32.8,76.9c29.5-3,54.7,3.5,78.1,21.5l-61-118.7   c-17.1-28.9-33.3-42.8-49.3-42.8C135.1,18.1,119.1,32.3,102.5,59.6"></path>	</defs>	<clipPath id="icclip2">		<use xlink:href="#ic2" style="overflow:visible;"></use>	</clipPath>			<linearGradient id="icgrad2" gradientUnits="userSpaceOnUse" x1="2086.6968" y1="3182.0813" x2="2087.6968" y2="3182.0813" gradientTransform="matrix(220.5066 0 0 -220.5066 -460089.375 701783.625)">		<stop offset="0" style="stop-color:#2E53A1"></stop>		<stop offset="0.51" style="stop-color:#674696"></stop>		<stop offset="1" style="stop-color:#B767A6"></stop>	</linearGradient>			<rect x="37.1" y="18.1" style="clip-path:url(#icclip2);fill:url(#icgrad2);" width="224.5" height="191.1"></rect></g><g>	<defs>		<path id="ic3" d="M134.6,172.1c-62.9,40.5-99.1,32.5-93-12.7   c-68.1,111.9,22.2,128.4,96.1,79.9c35.5-23.3,88.4-69.4,123.8-59.9c-13.9-28.7-33-38.1-52.5-38.1   C180,141.3,150.1,162.2,134.6,172.1"></path>	</defs>	<clipPath id="icclip3">		<use xlink:href="#ic3" style="overflow:visible;"></use>	</clipPath>			<linearGradient id="icgrad3" gradientUnits="userSpaceOnUse" x1="2088.2034" y1="3180.9675" x2="2089.2034" y2="3180.9675" gradientTransform="matrix(243.985 0 0 -243.985 -509472.7812 776323.0625)">		<stop offset="0" style="stop-color:#0B77BD"></stop>		<stop offset="0.47" style="stop-color:#4ABAB7"></stop>		<stop offset="1" style="stop-color:#C1D226"></stop>	</linearGradient>			<rect x="-26.4" y="141.3" style="clip-path:url(#icclip3);fill:url(#icgrad3);" width="288" height="146.5"></rect></g></svg>
