<svg xmlns="http://www.w3.org/2000/svg" xmlns:xlink="http://www.w3.org/1999/xlink" id="Capa_1" x="0px" y="0px" viewBox="0 0 967.8 281.6" style="enable-background:new 0 0 967.8 281.6;" xml:space="preserve"><style type="text/css">			.st0{clip-path:url(#SVGID_00000058579859878869689200000016614840491024276622_);fill:url(#SVGID_00000076566024467576816930000011169806470379630726_);}			.st1{clip-path:url(#SVGID_00000182514987396793046730000011603464360958312361_);fill:url(#SVGID_00000053542957706399549180000006197620287715154585_);}			.st2{clip-path:url(#SVGID_00000056396973101477995530000017554875625491303306_);fill:url(#SVGID_00000004509151597368610980000005010086437877926561_);}	.st3{fill:#4E4D4D;}</style><g>	<defs>		<path id="SVGID_1_" d="M205.5,193.1c0,0,20.2,35.1,29,50.5c19.1,33.5,39.2,28.7,55.4,23.8c6.6-2,12.6-4,17.6-3.4   c-27.3-51.4-35.4-68.7-46-84.5c-6.1-1.6-11.3-2.5-16.3-2.5C233.6,176.9,223.1,181.7,205.5,193.1"></path>	</defs>	<clipPath id="SVGID_00000085228326105770291960000001226875831490409130_">		<use xlink:href="#SVGID_1_" style="overflow:visible;"></use>	</clipPath>			<linearGradient id="SVGID_00000141454646790875649840000013290616753502911413_" gradientUnits="userSpaceOnUse" x1="2068.5112" y1="3195.166" x2="2069.5112" y2="3195.166" gradientTransform="matrix(102.0128 0 0 -102.0128 -210809.0156 326174.75)">		<stop offset="0" style="stop-color:#0B77BD"></stop>		<stop offset="0.47" style="stop-color:#4ABAB7"></stop>		<stop offset="1" style="stop-color:#C1D226"></stop>	</linearGradient>			<rect x="205.5" y="176.9" style="clip-path:url(#SVGID_00000085228326105770291960000001226875831490409130_);fill:url(#SVGID_00000141454646790875649840000013290616753502911413_);" width="102" height="100.2"></rect></g><g>	<defs>		<path id="SVGID_00000150089585328748160020000011863805757545695134_" d="M102.5,59.6l-60.8,99.8c-4.6,34.2,15.7,49.8,52.2,38   c16.4-33.9,36.4-84.4,56.7-116.3c10.9,20.5,22.8,50,32.8,76.9c29.5-3,54.7,3.5,78.1,21.5l-61-118.7   c-17.1-28.9-33.3-42.8-49.3-42.8C135.1,18.1,119.1,32.3,102.5,59.6"></path>	</defs>	<clipPath id="SVGID_00000075139833363853062680000015205048783755757482_">		<use xlink:href="#SVGID_00000150089585328748160020000011863805757545695134_" style="overflow:visible;"></use>	</clipPath>			<linearGradient id="SVGID_00000119104129307225771460000012774357976506580916_" gradientUnits="userSpaceOnUse" x1="2086.6968" y1="3182.0813" x2="2087.6968" y2="3182.0813" gradientTransform="matrix(220.5066 0 0 -220.5066 -460089.375 701783.625)">		<stop offset="0" style="stop-color:#2E53A1"></stop>		<stop offset="0.51" style="stop-color:#674696"></stop>		<stop offset="1" style="stop-color:#B767A6"></stop>	</linearGradient>			<rect x="37.1" y="18.1" style="clip-path:url(#SVGID_00000075139833363853062680000015205048783755757482_);fill:url(#SVGID_00000119104129307225771460000012774357976506580916_);" width="224.5" height="191.1"></rect></g><g>	<defs>		<path id="SVGID_00000121246312128809979470000018351668918120317066_" d="M134.6,172.1c-62.9,40.5-99.1,32.5-93-12.7   c-68.1,111.9,22.2,128.4,96.1,79.9c35.5-23.3,88.4-69.4,123.8-59.9c-13.9-28.7-33-38.1-52.5-38.1   C180,141.3,150.1,162.2,134.6,172.1"></path>	</defs>	<clipPath id="SVGID_00000099650598870360043190000016889158028866802861_">		<use xlink:href="#SVGID_00000121246312128809979470000018351668918120317066_" style="overflow:visible;"></use>	</clipPath>			<linearGradient id="SVGID_00000064314433602177913460000012379551288695915137_" gradientUnits="userSpaceOnUse" x1="2088.2034" y1="3180.9675" x2="2089.2034" y2="3180.9675" gradientTransform="matrix(243.985 0 0 -243.985 -509472.7812 776323.0625)">		<stop offset="0" style="stop-color:#0B77BD"></stop>		<stop offset="0.47" style="stop-color:#4ABAB7"></stop>		<stop offset="1" style="stop-color:#C1D226"></stop>	</linearGradient>			<rect x="-26.4" y="141.3" style="clip-path:url(#SVGID_00000099650598870360043190000016889158028866802861_);fill:url(#SVGID_00000064314433602177913460000012379551288695915137_);" width="288" height="146.5"></rect></g><path class="st3" d="M374.8,126.5H359l-3.4,8.4h-2.6l12.7-32h2.5l12.7,32h-2.6L374.8,126.5z M366.9,106.3l-7.2,18.1h14.4 L366.9,106.3z"></path><path class="st3" d="M382.9,130.1c2.3,2.2,5.9,3.2,9,3.2c3.1,0,7.1-1.3,7.1-5c0-2.2-1.8-3.1-4.2-3.8c-4.8-1.3-12-1.3-12-7 c0-4.7,4.8-6.7,9-6.7c2.9,0,6.1,0.9,8.4,2.8v2.4c-2.2-2-5.6-3.2-8.5-3.2c-3,0-6.7,1.4-6.7,4.8c0,1.7,1.5,2.8,3.4,3.4 c4.8,1.6,13.1,1.3,13.1,7.3c0,5-5.3,6.8-9.6,6.8c-3,0-6.5-0.9-9-2.8V130.1z"></path><path class="st3" d="M429,123.1c0,6.8-5.6,12.2-12.5,12.2c-6.9,0-12.5-5.5-12.5-12.2c0-6.8,5.6-12.3,12.5-12.3 C423.4,110.8,429,116.3,429,123.1 M406.4,123.1c0,5.6,4.6,10.1,10.1,10.1c5.6,0,10.1-4.5,10.1-10.1c0-5.6-4.6-10.1-10.1-10.1 C410.9,113,406.4,117.5,406.4,123.1"></path><path class="st3" d="M452.7,115.9c-2.4-1.9-5.2-2.9-8.1-2.9c-5.8,0-10.8,4.1-10.8,10.1c0,6,5,10.1,10.8,10.1c2.9,0,5.8-1,8.1-2.9 v2.4c-2.4,1.7-5.2,2.6-8.1,2.6c-7.1,0-13.2-5-13.2-12.2s6.1-12.2,13.2-12.2c2.9,0,5.8,0.9,8.1,2.6V115.9z"></path><path class="st3" d="M458.6,102.1c1.2,0,2.1,0.9,2.1,2.1c0,1.1-0.9,2-2.1,2c-1.1,0-2-0.9-2-2C456.6,103.1,457.5,102.1,458.6,102.1  M459.9,111.3h-2.4v23.6h2.4V111.3z"></path><path class="st3" d="M481,132.3c-2.1,1.9-4.7,3-7.5,3c-4.8,0-10.6-2.3-10.6-8c0-4.2,3.5-7,7.5-7H481c-0.3-5.5-3.4-7.5-9-7.5 c-2.3,0.1-5.1,0.7-7,2.1v-2.2c2.2-1.3,5.2-1.8,7.5-1.8c6.3,0,10.9,2.5,10.9,10.3c0,4.6,0,9.2,0,13.8H481V132.3z M471.3,122.2 c-3.3,0-6,1.9-6,5c0,4.6,4.7,6.1,8.4,6.1c2.8,0,5.4-1.1,7.3-3v-8.1H471.3z"></path><path class="st3" d="M508.4,115.9c-2.4-1.9-5.2-2.9-8.1-2.9c-5.8,0-10.8,4.1-10.8,10.1c0,6,5,10.1,10.8,10.1c2.9,0,5.8-1,8.1-2.9 v2.4c-2.4,1.7-5.2,2.6-8.1,2.6c-7.1,0-13.2-5-13.2-12.2s6.1-12.2,13.2-12.2c2.9,0,5.8,0.9,8.1,2.6V115.9z"></path><path class="st3" d="M514.4,102.1c1.2,0,2.1,0.9,2.1,2.1c0,1.1-0.9,2-2.1,2c-1.1,0-2-0.9-2-2C512.3,103.1,513.3,102.1,514.4,102.1  M515.6,111.3h-2.4v23.6h2.4V111.3z"></path><path class="st3" d="M532.3,110.8c6.9,0,12.5,5.5,12.5,12.3c0,6.8-5.6,12.2-12.5,12.2c-7,0-12.5-5.5-12.5-12.2 C519.8,116.3,525.3,110.8,532.3,110.8 M532.3,113c-5.6,0-10.1,4.5-10.1,10.1c0,5.6,4.5,10.1,10.1,10.1c5.6,0,10.1-4.5,10.1-10.1 C542.4,117.6,537.9,113,532.3,113 M531.4,108.9h1.6l3-6h-2.3L531.4,108.9z"></path><path class="st3" d="M551.3,114.3c2.2-2.2,5-3.4,7.9-3.4c7.2,0,11.7,5.4,11.7,12.2v11.8h-2.4v-11.8c0-5.8-3.4-10.2-9.2-10.2 c-3,0-5.8,1.2-7.9,3.5v18.5h-2.4v-23.5h2.4V114.3z"></path><path class="st3" d="M611.2,133.2c-2.5,1.4-5.2,2.1-8.1,2.1c-9.2,0-16.7-7.3-16.7-16.4c0-9.1,7.4-16.5,16.7-16.5 c2.8,0,5.6,0.7,8.1,2.1v2.5c-2.4-1.5-5.3-2.3-8.1-2.3c-7.8,0-14.2,6.3-14.2,14.1c0,7.8,6.3,14.1,14.2,14.1c2.8,0,5.6-0.8,8.1-2.4 V133.2z"></path><path class="st3" d="M639.9,123.1c0,6.8-5.6,12.2-12.5,12.2c-6.9,0-12.5-5.5-12.5-12.2c0-6.8,5.6-12.3,12.5-12.3 C634.3,110.8,639.9,116.3,639.9,123.1 M617.3,123.1c0,5.6,4.6,10.1,10.1,10.1c5.6,0,10.1-4.5,10.1-10.1c0-5.6-4.6-10.1-10.1-10.1 C621.8,113,617.3,117.5,617.3,123.1"></path><rect x="643.5" y="103" class="st3" width="2.4" height="32"></rect><path class="st3" d="M674.5,123.1c0,6.8-5.6,12.2-12.5,12.2c-6.9,0-12.5-5.5-12.5-12.2c0-6.8,5.6-12.3,12.5-12.3 C668.9,110.8,674.5,116.3,674.5,123.1 M651.9,123.1c0,5.6,4.6,10.1,10.1,10.1c5.6,0,10.1-4.5,10.1-10.1c0-5.6-4.6-10.1-10.1-10.1 C656.4,113,651.9,117.5,651.9,123.1"></path><path class="st3" d="M680.2,114.2c2.2-2.1,4.9-3.4,7.7-3.4c4.3,0,6.8,2.2,8.1,4.9c2.5-3.3,5.9-4.9,9.8-4.9c6.6,0,9.6,4.4,9.6,10.1 v13.9H713v-13.5c0-4.8-2.2-8.5-7.2-8.5c-3.5,0-6.5,1.6-8.5,4.5v17.5h-2.4v-15.6c0-2.7-1.7-6.4-6.9-6.4c-2.9,0-5.7,1.2-7.7,3.5v18.5 h-2.4v-23.5h2.4V114.2z"></path><path class="st3" d="M721.9,114.3c2.2-2.2,4.9-3.4,7.9-3.4c7,0,12.7,5.1,12.7,12.2c0,7.1-5.8,12.2-12.7,12.2c-3,0-5.7-1-7.9-3v2.5 h-2.4v-32h2.4V114.3z M721.9,130.3c2.1,2,4.9,3,7.9,3c5.6,0,10.3-4.3,10.3-10.2c0-6-4.7-10.2-10.3-10.2c-3,0-5.8,1.2-7.9,3.5V130.3z "></path><path class="st3" d="M747.2,102.1c1.2,0,2.1,0.9,2.1,2.1c0,1.1-0.9,2-2.1,2c-1.1,0-2-0.9-2-2C745.2,103.1,746.1,102.1,747.2,102.1  M748.5,111.3h-2.4v23.6h2.4V111.3z"></path><path class="st3" d="M769.6,132.3c-2.1,1.9-4.7,3-7.5,3c-4.8,0-10.6-2.3-10.6-8c0-4.2,3.5-7,7.5-7h10.4c-0.3-5.5-3.4-7.5-9-7.5 c-2.3,0.1-5.1,0.7-7,2.1v-2.2c2.2-1.3,5.2-1.8,7.5-1.8c6.3,0,10.9,2.5,10.9,10.3c0,4.6,0,9.2,0,13.8h-2.4V132.3z M759.9,122.2 c-3.3,0-6,1.9-6,5c0,4.6,4.7,6.1,8.4,6.1c2.8,0,5.4-1.1,7.3-3v-8.1H759.9z"></path><path class="st3" d="M779.1,114.3c2.2-2.2,5-3.4,7.9-3.4c7.2,0,11.7,5.4,11.7,12.2v11.8h-2.4v-11.8c0-5.8-3.4-10.2-9.2-10.2 c-3,0-5.8,1.2-7.9,3.5v18.5h-2.4v-23.5h2.4V114.3z"></path><path class="st3" d="M819.6,132.3c-2.1,1.9-4.7,3-7.5,3c-4.8,0-10.6-2.3-10.6-8c0-4.2,3.5-7,7.5-7h10.4c-0.3-5.5-3.4-7.5-9-7.5 c-2.3,0.1-5.1,0.7-7,2.1v-2.2c2.2-1.3,5.2-1.8,7.5-1.8c6.3,0,10.9,2.5,10.9,10.3c0,4.6,0,9.2,0,13.8h-2.4V132.3z M809.8,122.2 c-3.3,0-6,1.9-6,5c0,4.6,4.7,6.1,8.4,6.1c2.8,0,5.4-1.1,7.3-3v-8.1H809.8z"></path><path class="st3" d="M377.2,190.9h-2.4v-2.5c-2.2,1.9-4.9,3-7.9,3c-7,0-12.7-5.1-12.7-12.2c0-7.1,5.8-12.2,12.7-12.2 c2.9,0,5.7,1.2,7.9,3.4V159h2.4V190.9z M374.7,172.4c-2.1-2.3-4.9-3.5-7.9-3.5c-5.7,0-10.4,4.3-10.4,10.2c0,6,4.8,10.2,10.4,10.2 c3,0,5.8-1,7.9-3V172.4z"></path><path class="st3" d="M382.6,179.5c0.1,5.7,4.7,9.8,10.8,9.8c3.8,0,7.4-1.3,10.1-3.5v2.2c-2.4,2-6.4,3.4-10.3,3.4 c-7.4,0-12.9-5.3-12.9-12.6c0.1-6.6,5.3-11.9,12.1-11.9c7,0,12.3,6.2,12,12.6H382.6z M402.1,177.6c-0.3-4.9-4.6-8.7-9.7-8.7 c-5.3,0-9.4,3.7-9.7,8.7H402.1z"></path><path class="st3" d="M444,189.2c-2.5,1.4-5.2,2.1-8.1,2.1c-9.2,0-16.7-7.3-16.7-16.4c0-9.1,7.4-16.5,16.7-16.5 c2.8,0,5.6,0.7,8.1,2.1v2.5c-2.4-1.5-5.3-2.3-8.1-2.3c-7.8,0-14.2,6.3-14.2,14.1c0,7.8,6.3,14.1,14.2,14.1c2.8,0,5.6-0.8,8.1-2.4 V189.2z"></path><rect x="449.1" y="159" class="st3" width="2.4" height="32"></rect><path class="st3" d="M457,167.3h2.4v23.6H457V167.3z M457.2,164.9h1.6l3-6h-2.3L457.2,164.9z"></path><path class="st3" d="M467,170.3c2.2-2.2,5-3.4,7.9-3.4c7.2,0,11.7,5.4,11.7,12.2v11.8h-2.4v-11.8c0-5.8-3.4-10.2-9.2-10.2 c-3,0-5.8,1.2-7.9,3.5v18.5h-2.4v-23.5h2.4V170.3z"></path><path class="st3" d="M492.3,158.1c1.2,0,2.1,0.9,2.1,2.1c0,1.1-0.9,2-2.1,2c-1.1,0-2-0.9-2-2C490.3,159.1,491.2,158.1,492.3,158.1  M493.6,167.3h-2.4v23.6h2.4V167.3z"></path><path class="st3" d="M518.5,171.9c-2.4-1.9-5.2-2.9-8.1-2.9c-5.8,0-10.8,4.1-10.8,10.1s5,10.1,10.8,10.1c2.9,0,5.8-1,8.1-2.9v2.4 c-2.4,1.7-5.2,2.6-8.1,2.6c-7.1,0-13.2-5-13.2-12.2s6.1-12.2,13.2-12.2c2.9,0,5.8,0.9,8.1,2.6V171.9z"></path><path class="st3" d="M539.7,188.3c-2.1,1.9-4.7,3-7.5,3c-4.8,0-10.6-2.3-10.6-8c0-4.2,3.5-7,7.5-7h10.4c-0.3-5.5-3.4-7.5-9-7.5 c-2.3,0.1-5.1,0.7-7,2.1v-2.2c2.2-1.3,5.2-1.8,7.5-1.8c6.3,0,10.9,2.5,10.9,10.3c0,4.6,0,9.2,0,13.8h-2.4V188.3z M529.9,178.2 c-3.3,0-6,1.9-6,5c0,4.6,4.7,6.1,8.4,6.1c2.8,0,5.4-1.1,7.3-3v-8.1H529.9z"></path><path class="st3" d="M546.6,186.1c2.3,2.2,5.9,3.2,9,3.2c3.1,0,7.1-1.3,7.1-5c0-2.2-1.8-3.1-4.2-3.8c-4.8-1.3-12-1.3-12-7 c0-4.7,4.8-6.7,9-6.7c2.9,0,6.1,0.9,8.4,2.8v2.4c-2.2-2-5.6-3.2-8.5-3.2c-3,0-6.7,1.4-6.7,4.8c0,1.7,1.5,2.8,3.4,3.4 c4.8,1.6,13.1,1.3,13.1,7.3c0,5-5.3,6.8-9.6,6.8c-3,0-6.5-0.9-9-2.8V186.1z"></path><path class="st3" d="M602.9,190.9h-2.4v-2.5c-2.2,1.9-4.9,3-7.9,3c-7,0-12.7-5.1-12.7-12.2c0-7.1,5.8-12.2,12.7-12.2 c2.9,0,5.7,1.2,7.9,3.4V159h2.4V190.9z M600.4,172.4c-2.1-2.3-4.9-3.5-7.9-3.5c-5.7,0-10.4,4.3-10.4,10.2c0,6,4.8,10.2,10.4,10.2 c3,0,5.8-1,7.9-3V172.4z"></path><path class="st3" d="M608.3,179.5c0.1,5.7,4.7,9.8,10.8,9.8c3.8,0,7.4-1.3,10.1-3.5v2.2c-2.4,2-6.4,3.4-10.3,3.4 c-7.4,0-12.9-5.3-12.9-12.6c0.1-6.6,5.3-11.9,12.1-11.9c7,0,12.3,6.2,12,12.6H608.3z M627.8,177.6c-0.3-4.9-4.6-8.7-9.7-8.7 c-5.3,0-9.4,3.7-9.7,8.7H627.8z"></path><path class="st3" d="M682,189.2c-2.5,1.4-5.2,2.1-8.1,2.1c-9.2,0-16.7-7.3-16.7-16.4c0-9.1,7.4-16.5,16.7-16.5 c2.8,0,5.6,0.7,8.1,2.1v2.5c-2.4-1.5-5.3-2.3-8.1-2.3c-7.8,0-14.2,6.3-14.2,14.1c0,7.8,6.3,14.1,14.2,14.1c2.8,0,5.6-0.8,8.1-2.4 V189.2z"></path><path class="st3" d="M688.2,158.1c1.2,0,2.1,0.9,2.1,2.1c0,1.1-0.9,2-2.1,2c-1.1,0-2-0.9-2-2C686.1,159.1,687,158.1,688.2,158.1  M689.4,167.3H687v23.6h2.4V167.3z"></path><path class="st3" d="M696.4,170.1c2.2-2,5-3.2,7.9-3.2c0.8,0,1.6,0,2.5,0.2v2c-0.9-0.1-1.8-0.2-2.5-0.2c-2.9,0-5.8,1.2-7.9,3.3v18.7 H694v-23.6h2.4V170.1z"></path><path class="st3" d="M727.7,188c-2.2,2.2-4.7,3.4-7.5,3.4c-7.2,0-10.8-5.3-10.8-12v-12h2.4v12c0,5.5,2.6,10,8.4,10 c3,0,5.4-1.2,7.5-3.5v-18.5h2.4v23.5h-2.4V188z"></path><path class="st3" d="M756.6,191.3c0,8.2-5.7,11-11.4,10.9c-3.7,0-7.7-1.2-10.5-3.6v-2.5c2.6,2.6,6.7,4,10.5,4c4.5,0,9-2.2,9-8.9 c0-1.8,0-1.1,0-2.8c-2.1,1.9-5,3-7.8,3c-6.8,0-12.8-5-12.8-12.2c0-7.2,6-12.2,12.8-12.2c2.8,0,5.7,1.2,7.8,3.4v-3h2.4V191.3z  M754.1,172.4c-2.1-2.3-5-3.6-7.8-3.5c-5.6,0-10.4,4.3-10.4,10.2c0,6,4.8,10.2,10.4,10.2c2.8,0,5.8-1.1,7.8-3V172.4z"></path><path class="st3" d="M761.5,167.3h2.4v23.6h-2.4V167.3z M761.8,164.9h1.6l3-6h-2.3L761.8,164.9z"></path><path class="st3" d="M785.8,188.3c-2.1,1.9-4.7,3-7.5,3c-4.8,0-10.6-2.3-10.6-8c0-4.2,3.5-7,7.5-7h10.4c-0.3-5.5-3.4-7.5-9-7.5 c-2.3,0.1-5.1,0.7-7,2.1v-2.2c2.2-1.3,5.2-1.8,7.5-1.8c6.3,0,10.9,2.5,10.9,10.3c0,4.6,0,9.2,0,13.8h-2.4V188.3z M776,178.2 c-3.3,0-6,1.9-6,5c0,4.6,4.7,6.1,8.4,6.1c2.8,0,5.4-1.1,7.3-3v-8.1H776z"></path><path class="st3" d="M818,158.9c5.3,0,9.6,3.5,9.6,9.3c0,5.6-4.3,9.2-9.6,9.2h-10.2v13.5h-2.5v-32H818z M817.5,175.3 c4.2,0,7.6-2.6,7.6-7c0-4.6-3.3-7.1-7.6-7.1h-9.7v14.1H817.5z"></path><rect x="831.4" y="159" class="st3" width="2.4" height="32"></rect><path class="st3" d="M855,190.9v-2.6c-2.1,1.9-4.7,3-7.5,3c-4.8,0-10.6-2.3-10.6-8c0-4.2,3.5-7,7.5-7h10.4c-0.3-5.5-3.4-7.5-9-7.5 c-2.3,0.1-5.1,0.7-7,2.1v-2.2c2.2-1.3,5.2-1.8,7.5-1.8c6.3,0,10.9,2.5,10.9,10.3c0,4.6,0,9.2,0,13.8H855z M854.9,178.2h-9.7 c-3.3,0-6,1.9-6,5c0,4.6,4.7,6.1,8.4,6.1c2.8,0,5.4-1.1,7.2-3V178.2z M845.7,164.9h1.6l3-6H848L845.7,164.9z"></path><path class="st3" d="M862.1,186.1c2.3,2.2,5.9,3.2,9,3.2c3.1,0,7.1-1.3,7.1-5c0-2.2-1.8-3.1-4.2-3.8c-4.8-1.3-12-1.3-12-7 c0-4.7,4.8-6.7,9-6.7c2.9,0,6.1,0.9,8.4,2.8v2.4c-2.2-2-5.6-3.2-8.5-3.2c-3,0-6.7,1.4-6.7,4.8c0,1.7,1.5,2.8,3.4,3.4 c4.8,1.6,13.1,1.3,13.1,7.3c0,5-5.3,6.8-9.6,6.8c-3,0-6.5-0.9-9-2.8V186.1z"></path><path class="st3" d="M885.4,159h2.4v8.4h6v1.9h-6v15.2c0,3.6,1.5,4.7,3.7,4.7c0.7,0,1.4-0.1,2.2-0.2v1.9c-0.8,0.1-1.6,0.1-2.4,0.1 c-3.5,0-6-1.7-6-6.6v-15.2h-3v-1.9h3V159z"></path><path class="st3" d="M898.1,158.1c1.2,0,2.1,0.9,2.1,2.1c0,1.1-0.9,2-2.1,2c-1.1,0-2-0.9-2-2C896.1,159.1,897,158.1,898.1,158.1  M899.4,167.3H897v23.6h2.4V167.3z"></path><path class="st3" d="M924.3,171.9c-2.4-1.9-5.2-2.9-8.1-2.9c-5.8,0-10.8,4.1-10.8,10.1s5,10.1,10.8,10.1c2.9,0,5.8-1,8.1-2.9v2.4 c-2.4,1.7-5.2,2.6-8.1,2.6c-7.1,0-13.2-5-13.2-12.2s6.1-12.2,13.2-12.2c2.9,0,5.8,0.9,8.1,2.6V171.9z"></path><path class="st3" d="M945.5,188.3c-2.1,1.9-4.7,3-7.5,3c-4.8,0-10.6-2.3-10.6-8c0-4.2,3.5-7,7.5-7h10.4c-0.3-5.5-3.4-7.5-9-7.5 c-2.3,0.1-5.1,0.7-7,2.1v-2.2c2.2-1.3,5.2-1.8,7.5-1.8c6.3,0,10.9,2.5,10.9,10.3c0,4.6,0,9.2,0,13.8h-2.4V188.3z M935.7,178.2 c-3.3,0-6,1.9-6,5c0,4.6,4.7,6.1,8.4,6.1c2.8,0,5.4-1.1,7.3-3v-8.1H935.7z"></path><path class="st3" d="M952.6,190.9c-0.9-0.2-1.5-1-1.5-2c0-1.2,0.9-2,2-2c1.2,0,2,0.9,2,2c0,0.5-0.1,1-2.4,5.2h-1.1L952.6,190.9z"></path><polygon class="st3" points="376.8,231.6 357.8,231.6 357.8,244.8 377.4,244.8 377.4,246.9 355.3,246.9 355.3,214.9 377.4,214.9  377.4,217.2 357.8,217.2 357.8,229.2 376.8,229.2 "></polygon><path class="st3" d="M380.9,242.1c2.3,2.2,5.9,3.2,9,3.2c3.1,0,7.1-1.3,7.1-5c0-2.2-1.8-3.1-4.2-3.8c-4.8-1.3-12-1.3-12-7 c0-4.7,4.8-6.7,9-6.7c2.9,0,6.1,0.9,8.4,2.8v2.4c-2.2-2-5.6-3.2-8.5-3.2c-3,0-6.7,1.4-6.7,4.8c0,1.7,1.5,2.8,3.4,3.4 c4.8,1.6,13.1,1.3,13.1,7.3c0,5-5.3,6.8-9.6,6.8c-3,0-6.5-0.9-9-2.8V242.1z"></path><path class="st3" d="M404.2,215h2.4v8.4h6v1.9h-6v15.2c0,3.6,1.5,4.7,3.7,4.7c0.7,0,1.4-0.1,2.2-0.2v1.9c-0.8,0.1-1.6,0.1-2.4,0.1 c-3.5,0-6-1.7-6-6.6v-15.2h-3v-1.9h3V215z"></path><path class="st3" d="M417.4,235.5c0,5.7,4.7,9.8,10.7,9.8c3.8,0,7.5-1.3,10.1-3.5v2.2c-2.4,2-6.4,3.4-10.3,3.4 c-7.4,0-12.9-5.3-12.9-12.6c0.1-6.6,5.3-11.9,12.1-11.9c7,0,12.2,6.2,12,12.6H417.4z M436.8,233.7c-0.3-4.9-4.6-8.8-9.7-8.8 c-5.3,0-9.4,3.7-9.7,8.8H436.8z M426,220.9h1.6l3-6h-2.3L426,220.9z"></path><path class="st3" d="M444.4,215h2.4v8.4h6v1.9h-6v15.2c0,3.6,1.5,4.7,3.7,4.7c0.7,0,1.4-0.1,2.2-0.2v1.9c-0.8,0.1-1.6,0.1-2.4,0.1 c-3.5,0-6-1.7-6-6.6v-15.2h-3v-1.9h3V215z"></path><path class="st3" d="M457.1,214.1c1.2,0,2.1,0.9,2.1,2.1c0,1.1-0.9,2-2.1,2c-1.1,0-2-0.9-2-2C455.1,215,456,214.1,457.1,214.1  M458.4,223.3H456v23.6h2.4V223.3z"></path><path class="st3" d="M483.3,227.9c-2.4-1.9-5.2-2.9-8.1-2.9c-5.8,0-10.8,4.1-10.8,10.1s5,10.1,10.8,10.1c2.9,0,5.8-1,8.1-2.9v2.4 c-2.4,1.7-5.2,2.6-8.1,2.6c-7.1,0-13.2-5-13.2-12.2c0-7.2,6.1-12.2,13.2-12.2c2.9,0,5.8,0.9,8.1,2.6V227.9z"></path><path class="st3" d="M504.5,244.3c-2.1,1.9-4.7,3-7.5,3c-4.8,0-10.6-2.3-10.6-8c0-4.2,3.5-7,7.5-7h10.4c-0.3-5.5-3.4-7.5-9-7.5 c-2.3,0.1-5.1,0.7-7,2.1v-2.2c2.2-1.3,5.2-1.8,7.5-1.8c6.3,0,10.9,2.5,10.9,10.3c0,4.6,0,9.2,0,13.8h-2.4V244.3z M494.7,234.2 c-3.3,0-6,1.9-6,5c0,4.6,4.7,6.1,8.4,6.1c2.8,0,5.4-1.1,7.3-3v-8.1H494.7z"></path><path class="st3" d="M532.5,243.7l8.4-20.4h2.6l-9.3,22.7l-1,2.6c-1.4,3.6-4.2,7.5-8.2,7.5c-0.6,0-1.3,0-2.1-0.1v-2.2 c0.7,0.1,1.4,0.1,1.9,0.1c3.5,0,5.4-4.1,6.5-7.2l-9.7-23.5h2.6L532.5,243.7z"></path><path class="st3" d="M570.8,214.9c5.3,0,9.6,3.6,9.6,9.4c0,4.9-3.6,8.3-8.1,8.9l8.3,13.7h-2.8l-8.1-13.5h-9.1v13.5H558v-32H570.8z  M570.2,231.3c4.2,0,7.6-2.6,7.6-7c0-4.6-3.3-7.1-7.6-7.1h-9.7v14.1H570.2z"></path><path class="st3" d="M585.1,235.5c0.1,5.7,4.7,9.8,10.8,9.8c3.8,0,7.4-1.3,10.1-3.5v2.2c-2.4,2-6.4,3.4-10.3,3.4 c-7.4,0-12.9-5.3-12.9-12.6c0.1-6.6,5.3-11.9,12.1-11.9c7,0,12.3,6.2,12,12.6H585.1z M604.6,233.6c-0.3-4.9-4.6-8.7-9.7-8.7 c-5.3,0-9.4,3.7-9.7,8.7H604.6z"></path><path class="st3" d="M630.8,227.9c-2.4-1.9-5.2-2.9-8.1-2.9c-5.8,0-10.8,4.1-10.8,10.1s5,10.1,10.8,10.1c2.9,0,5.8-1,8.1-2.9v2.4 c-2.4,1.7-5.2,2.6-8.1,2.6c-7.1,0-13.2-5-13.2-12.2c0-7.2,6.1-12.2,13.2-12.2c2.9,0,5.8,0.9,8.1,2.6V227.9z"></path><path class="st3" d="M658.9,235.1c0,6.8-5.6,12.2-12.5,12.2c-6.9,0-12.5-5.5-12.5-12.2c0-6.8,5.6-12.3,12.5-12.3 C653.3,222.8,658.9,228.3,658.9,235.1 M636.3,235.1c0,5.6,4.6,10.1,10.1,10.1c5.6,0,10.1-4.5,10.1-10.1c0-5.6-4.6-10.1-10.1-10.1 C640.8,225,636.3,229.5,636.3,235.1"></path><path class="st3" d="M664.6,226.3c2.2-2.2,5-3.4,7.9-3.4c7.2,0,11.7,5.4,11.7,12.2v11.8h-2.4v-11.8c0-5.8-3.4-10.2-9.2-10.2 c-3,0-5.8,1.2-7.9,3.5v18.5h-2.4v-23.5h2.4V226.3z"></path><path class="st3" d="M688.4,242.1c2.3,2.2,5.9,3.2,9,3.2c3.1,0,7.1-1.3,7.1-5c0-2.2-1.8-3.1-4.2-3.8c-4.8-1.3-12-1.3-12-7 c0-4.7,4.8-6.7,9-6.7c2.9,0,6.1,0.9,8.4,2.8v2.4c-2.2-2-5.6-3.2-8.5-3.2c-3,0-6.7,1.4-6.7,4.8c0,1.7,1.5,2.8,3.4,3.4 c4.8,1.6,13.1,1.3,13.1,7.3c0,5-5.3,6.8-9.6,6.8c-3,0-6.5-0.9-9-2.8V242.1z"></path><path class="st3" d="M711.8,215h2.4v8.4h6v1.9h-6v15.2c0,3.6,1.5,4.7,3.7,4.7c0.7,0,1.4-0.1,2.2-0.2v1.9c-0.8,0.1-1.6,0.1-2.4,0.1 c-3.5,0-6-1.7-6-6.6v-15.2h-3v-1.9h3V215z"></path><path class="st3" d="M725.5,226.1c2.2-2,5-3.2,7.9-3.2c0.8,0,1.6,0,2.5,0.2v2c-0.9-0.1-1.8-0.2-2.5-0.2c-2.9,0-5.8,1.2-7.9,3.3v18.7 h-2.4v-23.6h2.4V226.1z"></path><path class="st3" d="M756.9,244c-2.2,2.2-4.7,3.4-7.5,3.4c-7.2,0-10.8-5.3-10.8-12v-12h2.4v12c0,5.5,2.6,10,8.4,10 c3,0,5.4-1.2,7.5-3.5v-18.5h2.4v23.5h-2.4V244z"></path><path class="st3" d="M783.9,227.9c-2.4-1.9-5.2-2.9-8.1-2.9c-5.8,0-10.8,4.1-10.8,10.1s5,10.1,10.8,10.1c2.9,0,5.8-1,8.1-2.9v2.4 c-2.4,1.7-5.2,2.6-8.1,2.6c-7.1,0-13.2-5-13.2-12.2c0-7.2,6.1-12.2,13.2-12.2c2.9,0,5.8,0.9,8.1,2.6V227.9z"></path><path class="st3" d="M789.9,215h2.4v8.4h6v1.9h-6v15.2c0,3.6,1.5,4.7,3.7,4.7c0.7,0,1.4-0.1,2.2-0.2v1.9c-0.8,0.1-1.6,0.1-2.4,0.1 c-3.5,0-6-1.7-6-6.6v-15.2h-3v-1.9h3V215z"></path><path class="st3" d="M802.6,214.1c1.2,0,2.1,0.9,2.1,2.1c0,1.1-0.9,2-2.1,2c-1.1,0-2-0.9-2-2C800.6,215,801.5,214.1,802.6,214.1  M803.8,223.3h-2.4v23.6h2.4V223.3z"></path><polygon class="st3" points="808.8,223.3 817.1,243.8 825.4,223.3 828,223.3 818.4,246.9 815.9,246.9 806.2,223.3 "></polygon><path class="st3" d="M846.6,244.3c-2.1,1.9-4.7,3-7.5,3c-4.8,0-10.6-2.3-10.6-8c0-4.2,3.5-7,7.5-7h10.4c-0.3-5.5-3.4-7.5-9-7.5 c-2.3,0.1-5.1,0.7-7,2.1v-2.2c2.2-1.3,5.2-1.8,7.5-1.8c6.3,0,10.9,2.5,10.9,10.3c0,4.6,0,9.2,0,13.8h-2.4V244.3z M836.8,234.2 c-3.3,0-6,1.9-6,5c0,4.6,4.7,6.1,8.4,6.1c2.8,0,5.4-1.1,7.3-3v-8.1H836.8z"></path><path class="st3" d="M386.6,58.2h-19.9L362,70.3h-8.9l19.5-51.6h8L400,70.3h-8.9L386.6,58.2z M376.6,29.9l-8,21.7h15.9L376.6,29.9z"></path><path class="st3" d="M406.3,56.1c4.9,5,12.6,7.5,18.9,7.5c4.9,0,10.7-2.1,10.7-7.9c0-3.3-3.2-5-7.6-6.4c-8.9-3.1-22.6-3.9-22.6-16.4 c0-10.1,9.7-14.8,18.8-14.8c6,0,12.6,2.2,17.3,6.3v8.4c-4.6-4.9-11.4-7.3-17.3-7.3c-5,0-11,1.9-11,7.9c0,4.4,5.2,5.9,11.1,7.3 c8.8,2.2,19.5,4.4,19.5,15.5c0,10.4-10.1,14.8-19.4,14.8c-6.3,0-13.5-2.2-18.5-6.6V56.1z"></path><path class="st3" d="M504.9,44.6c0,14.6-12,26.4-26.9,26.4c-15.2,0-27.4-11.8-27.4-26.4c0-14.7,12.1-26.5,27.4-26.5 C493,18.1,504.9,29.9,504.9,44.6 M458.9,44.6c0,10.3,8.6,18.6,19.1,18.6c10.3,0,18.6-8.4,18.6-18.6c0-10.3-8.4-18.6-18.6-18.6 C467.5,26,458.9,34.3,458.9,44.6"></path><path class="st3" d="M552,67.6c-4.1,2.2-8.6,3.5-13.1,3.5c-15.2,0-27.4-11.8-27.4-26.4c0-14.7,12.2-26.5,27.4-26.5 c4.6,0,9,1.2,13.1,3.5v8.2c-4.1-2.6-8.7-3.9-13.1-3.9c-10.5,0-19.1,8.4-19.1,18.7c0,10.3,8.6,18.6,19.1,18.6c4.3,0,9-1.4,13.1-3.9 V67.6z"></path><polygon class="st3" points="597.7,70.3 562.3,70.3 562.3,18.8 570.6,18.8 570.6,63 597.7,63 "></polygon><rect x="605.3" y="18.8" class="st3" width="8.2" height="51.6"></rect><path class="st3" d="M662.1,67.6c-4.1,2.2-8.6,3.5-13.1,3.5c-15.2,0-27.4-11.8-27.4-26.4c0-14.7,12.2-26.5,27.4-26.5 c4.6,0,9,1.2,13.1,3.5v8.2c-4.1-2.6-8.7-3.9-13.1-3.9c-10.5,0-19.1,8.4-19.1,18.7c0,10.3,8.6,18.6,19.1,18.6c4.3,0,9-1.4,13.1-3.9 V67.6z"></path><path class="st3" d="M694.8,18.8c8.7,0,15.5,6.1,15.5,16.2c0,9.6-7,15.8-15.5,15.8h-14.5v19.6H672V18.8H694.8z M692.6,43.7 c5.2,0,9.4-3.1,9.4-8.4c0-6-4-9.2-9.4-9.2h-12.3v17.6H692.6z"></path><polygon class="st3" points="754.3,48.2 727,48.2 727,63.4 755.5,63.4 755.5,70.3 718.7,70.3 718.7,18.8 755.5,18.8 755.5,26.1  727,26.1 727,40.5 754.3,40.5 "></polygon><path class="st3" d="M786.6,18.8c8.7,0,15.5,6.3,15.5,16.6c0,7.6-5,12.9-11.8,14.5L803,70.3h-9.4l-11.8-19.6h-9.7v19.6h-8.3V18.8 H786.6z M784.5,43.7c5.2,0,9.4-3.1,9.4-8.4c0-6-4-9.2-9.4-9.2h-12.3v17.6H784.5z"></path></svg>